<svg width="64" height="64" viewBox="0 0 64 64" fill="none" xmlns="http://www.w3.org/2000/svg">
<circle cx="32" cy="32" r="32" fill="#008CFF"/>
<path d="M21.9 39C21.7667 39 21.6467 38.9533 21.54 38.86C21.4467 38.7533 21.4 38.6333 21.4 38.5V25.5C21.4 25.3533 21.4467 25.2333 21.54 25.14C21.6467 25.0467 21.7667 25 21.9 25H24.54C24.6867 25 24.8067 25.0467 24.9 25.14C24.9933 25.2333 25.04 25.3533 25.04 25.5V35.98H31.1C31.2467 35.98 31.3667 36.0333 31.46 36.14C31.5533 36.2333 31.6 36.3533 31.6 36.5V38.5C31.6 38.6333 31.5533 38.7533 31.46 38.86C31.3667 38.9533 31.2467 39 31.1 39H21.9ZM34.7652 39C34.6318 39 34.5118 38.9533 34.4052 38.86C34.3118 38.7533 34.2652 38.6333 34.2652 38.5V28.14H30.7052C30.5718 28.14 30.4518 28.0933 30.3452 28C30.2518 27.8933 30.2052 27.7733 30.2052 27.64V25.5C30.2052 25.3533 30.2518 25.2333 30.3452 25.14C30.4518 25.0467 30.5718 25 30.7052 25H41.4652C41.6118 25 41.7318 25.0467 41.8252 25.14C41.9185 25.2333 41.9652 25.3533 41.9652 25.5V27.64C41.9652 27.7867 41.9185 27.9067 41.8252 28C41.7318 28.0933 41.6118 28.14 41.4652 28.14H37.9052V38.5C37.9052 38.6333 37.8585 38.7533 37.7652 38.86C37.6718 38.9533 37.5518 39 37.4052 39H34.7652Z" fill="white"/>
</svg>
